<svg id="svg" xmlns="http://www.w3.org/2000/svg" xmlns:xlink="http://www.w3.org/1999/xlink" width="400" height="208.24742268041237" viewBox="0, 0, 400,208.24742268041237"><g id="svgg"><path id="path0" d="M216.495 37.334 C 216.495 68.129,216.232 70.441,212.887 69.126 C 161.372 48.872,106.906 93.250,117.458 146.882 C 131.396 217.731,232.578 222.707,252.688 153.532 C 255.138 145.105,255.624 130.663,255.185 79.417 L 254.639 15.769 237.113 10.006 C 227.474 6.836,218.892 4.215,218.041 4.183 C 217.191 4.150,216.495 19.068,216.495 37.334 M263.918 104.124 L 263.918 202.062 283.505 202.062 L 303.093 202.062 303.093 183.891 C 303.093 165.693,311.934 148.023,317.108 155.881 C 317.905 157.091,324.979 167.977,332.828 180.072 L 347.099 202.062 369.426 202.062 C 381.706 202.062,391.753 201.565,391.753 200.958 C 391.753 199.846,373.978 171.833,353.806 141.153 L 342.906 124.574 369.467 95.277 L 396.029 65.979 370.402 65.979 L 344.776 65.979 330.299 82.990 C 322.336 92.345,312.958 102.725,309.457 106.056 L 303.093 112.112 303.093 59.149 L 303.093 6.186 283.505 6.186 L 263.918 6.186 263.918 104.124 M42.739 64.591 C -5.591 79.625,5.985 152.577,56.700 152.577 C 64.050 152.577,68.404 153.623,70.234 155.827 C 74.901 161.452,68.747 162.822,38.660 162.855 L 10.309 162.887 10.309 183.747 L 10.309 204.608 43.814 203.697 C 80.830 202.691,87.002 201.099,98.580 189.569 C 126.584 161.678,106.800 113.402,67.365 113.402 C 60.083 113.402,55.305 112.353,53.683 110.400 C 48.719 104.418,53.589 103.093,80.534 103.093 L 107.216 103.093 107.216 82.474 L 107.216 61.856 78.866 62.014 C 63.273 62.101,47.016 63.261,42.739 64.591 M199.959 106.704 C 219.793 116.669,222.205 143.540,204.498 157.281 C 191.744 167.179,178.664 167.222,166.997 157.404 C 138.537 133.457,166.771 90.030,199.959 106.704 " stroke="none" fill="currentColor" fill-rule="nonzero"></path></g></svg>
